<svg xmlns="http://www.w3.org/2000/svg" width="18" height="18" viewBox="0 0 18 18" preserveAspectRatio="xMinYMin meet"
  aria-hidden="true" stroke="currentColor">
  <path fill-rule="evenodd"
    d="M9 7.5a2.5 2.5 0 1 0 0-5 2.5 2.5 0 0 0 0 5M9 9a4 4 0 1 0 0-8 4 4 0 0 0 0 8M4.642 12.996C3.98 13.77 3.75 15.01 3.75 17h-1.5c0-1.987.199-3.747 1.251-4.978C4.58 10.76 6.37 10.25 9 10.25s4.42.51 5.499 1.772C15.55 13.253 15.75 15.013 15.75 17h-1.5c0-1.99-.23-3.23-.892-4.004-.636-.744-1.846-1.246-4.358-1.246s-3.722.502-4.358 1.246"
    clip-rule="evenodd"></path>
</svg>
